# xmcd
#
# Track frame offsets:
#	150
#	29459
#	45855
#	64888
#	79456
#	93415
#	112503
#	128697
#	150906
#	169024
#	187036
#	209112
#	228993
#	249251
#	268584
#	285062
#	304160
#
# Disc length: 4274 seconds
#
# Revision: 0
# Processed by: cddbd v1.5PL3 Copyright (c) Steve Scherf et al.
# Submitted via: dBpowerAMP V4.0
#
DISCID=d610b011
DTITLE=Alabama - The Legendary - Disc 1
DYEAR=1900
DGENRE=
TTITLE0=My Homes In Alabama
TTITLE1=Feels So Right
TTITLE2=Why Lady Why
TTITLE3=Old Flame
TTITLE4=Tennesse River
TTITLE5=Mountain Music
TTITLE6=Close Enough To Perfect
TTITLE7=Take Me Down
TTITLE8=Lady Down On Love
TTITLE9=Dixieland Delight
TTITLE10=Very Special Love
TTITLE11=Roll On (Eighteen Wheeler)
TTITLE12=If You're Gonna Play In Texas (You Gotta Have A Fiddle In The Band)
TTITLE13=There's A Fire In The Night
TTITLE14=When We Make Love
TTITLE15=There's No Way
TTITLE16=Can't Keep A Good Man Down
EXTD=
EXTT0=
EXTT1=
EXTT2=
EXTT3=
EXTT4=
EXTT5=
EXTT6=
EXTT7=
EXTT8=
EXTT9=
EXTT10=
EXTT11=
EXTT12=
EXTT13=
EXTT14=
EXTT15=
EXTT16=
PLAYORDER=
